<?xml version="1.0" encoding="UTF-8"?>
<svg id="Calque_1" data-name="Calque 1" xmlns="http://www.w3.org/2000/svg" viewBox="0 0 369 132">
  <defs>
    <style>
      .cls-1 {
        fill: #ed6820;
      }

      .cls-2 {
        fill: #fff;
      }
    </style>
  </defs>
  <g>
    <path class="cls-1" d="M52.99,25.65c4.13.36,6.84.64,8.13.83,1.29.2,3.56.44,6.82.71,3.26.28,5.42.84,6.49,1.7,1.07.85,1.11,1.65.12,2.38-.99.73-2.31,1.1-3.96,1.1s-3.19-.08-4.62-.24c-1.43-.16-2.53-.26-3.31-.3-.77-.04-2.93-.18-6.46-.42-3.54-.24-5.95-.34-7.24-.3-1.29.04-2.29.46-3.01,1.25-.71.79-1.63,1.81-2.74,3.04-1.11,1.23-2.61,3.14-4.5,5.72-1.89,2.58-3.8,5.48-5.75,8.7-1.95,3.22-3.78,6.28-5.51,9.2-1.73,2.92-2.59,5.19-2.59,6.82s.39,2.73,1.16,3.31c.77.58,1.78.61,3.01.09,1.23-.52,2.19-.86,2.89-1.04.69-.18,1.69-.63,2.98-1.34,1.29-.71,2.67-1.63,4.14-2.74,1.47-1.11,1.4-.8-.21.92-1.61,1.73-2.83,3.19-3.66,4.38s-2.4,2.71-4.71,4.56c-2.3,1.85-4.23,2.81-5.78,2.89-1.55.08-2.93-.29-4.14-1.1-1.21-.81-1.95-2.09-2.2-3.84-.26-1.75-.39-3.32-.39-4.71s.32-2.92.95-4.59c.63-1.67,1.47-3.41,2.5-5.21,1.03-1.81,2.98-4.89,5.84-9.26,2.86-4.37,5.52-8.49,7.98-12.36,2.46-3.87,2.65-5.76.57-5.66-2.08.1-5.1.18-9.05.24-3.95.06-6.92.16-8.91.3-1.99.14-3.62.51-4.91,1.1-1.29.6-2.62.56-3.99-.12-1.37-.67-2.17-1.22-2.38-1.64-.22-.42-.24-.7-.06-.86.18-.16.86-.71,2.06-1.64,1.19-.93,2.43-1.72,3.72-2.35,1.29-.63,5.71-.89,13.25-.77,7.54.12,12.1.22,13.67.3,1.57.08,3.23.17,4.97.27,1.75.1,4.69.33,8.82.68Z"/>
    <path class="cls-2" d="M68.53,42.8c.87-.2,1.88-.14,3.01.18,1.13.32,1.33,1.47.6,3.46-.74,1.99-1.54,4.57-2.41,7.74-.87,3.18-1.7,5.76-2.47,7.74-.77,1.99-1.64,3.7-2.59,5.15-.95,1.45-1.87,2.23-2.74,2.35-.87.12-1.48.09-1.82-.09-.34-.18-.37-1.1-.09-2.77.28-1.67.86-4.22,1.76-7.65.89-3.44,1.74-6.42,2.53-8.97.79-2.54.8-3.84.03-3.9-.77-.06-.48-.57.89-1.52s2.47-1.53,3.31-1.73ZM78.06,24.75c.87.71,1.4,2.27,1.58,4.68.18,2.4,1,4.75,2.47,7.03,1.47,2.28,3.2,4.1,5.18,5.45,1.99,1.35,3.8,2.3,5.45,2.86,1.65.56,1.6.69-.15.39-1.75-.3-3.48-.99-5.21-2.08-1.73-1.09-3.58-2.72-5.57-4.88-1.99-2.17-3.44-3.75-4.35-4.77-.91-1.01-1.56-1.58-1.94-1.7-.38-.12-.7-.21-.95-.27-.26-.06-.85-.46-1.79-1.19-.93-.73-1.27-1.64-1.01-2.71.26-1.07.6-1.87,1.04-2.38.44-.52,1.2-.9,2.29-1.16,1.09-.26,2.07,0,2.95.74Z"/>
    <path class="cls-2" d="M87.34,44.47c1.51-2.06,2.74-3.06,3.69-2.98.95.08,1.57.48,1.85,1.19.28.71.52,1.38.71,2,.2.62.4,1.51.6,2.68.2,1.17-.61,3.45-2.41,6.82-1.81,3.38-1.68,3.8.39,1.28,2.06-2.52,3.83-4.09,5.3-4.71,1.47-.62,2.82-.62,4.05,0,1.23.62,2,1.36,2.32,2.23.32.87.52,1.87.6,2.98.08,1.11.24,1.75.48,1.91.24.16,1.55-1.03,3.93-3.57,2.38-2.54,4.48-4.22,6.29-5.03,1.81-.81,3.31-.98,4.5-.51s2.23,1.41,3.13,2.8c.89,1.39,2.05,3.42,3.48,6.08,1.43,2.66,2.91,4.62,4.44,5.87,1.53,1.25,2.89,2,4.08,2.23s3.26-.41,6.2-1.94c2.94-1.53,3.59-1.82,1.97-.86-1.63.95-3.27,1.78-4.91,2.47-1.65.7-2.81,1.23-3.49,1.61-.68.38-1.6.71-2.77.98-1.17.28-2.27.16-3.31-.36-1.03-.52-2.03-1.18-2.98-2-.95-.81-2.14-2.16-3.57-4.05-1.43-1.89-2.45-3.29-3.07-4.2-.62-.91-1.38-1.29-2.29-1.13-.91.16-1.87.67-2.86,1.52-.99.85-2.35,2.08-4.08,3.66-1.73,1.59-3.08,3.26-4.05,5-.97,1.75-1.56,2.87-1.76,3.36-.2.5-.71,1.19-1.55,2.09-.83.89-1.63,1.23-2.38,1.01-.75-.22-1.3-.62-1.64-1.19-.34-.58-.37-1.6-.09-3.07.28-1.47.51-2.88.69-4.23.18-1.35.32-2.82.42-4.41.1-1.59-.37-2.43-1.4-2.53-1.03-.1-2.75,1.03-5.15,3.39-2.4,2.36-3.92,4.2-4.56,5.51-.64,1.31-1.14,2.24-1.52,2.8-.38.56-.77.99-1.19,1.31-.42.32-1.25.28-2.5-.12-1.25-.4-1.96-.91-2.11-1.55-.16-.63.14-1.93.89-3.87.75-1.95,1.75-4.94,2.98-9,1.23-4.05,2.08-6.61,2.56-7.68s-2.83.87-9.92,5.84c-7.09,4.96-9.07,6.18-5.96,3.63,3.12-2.54,6.19-4.88,9.2-7,3.02-2.12,5.28-4.22,6.79-6.28Z"/>
    <path class="cls-2" d="M160.01,8.91c.4-.32,1.07-.4,2.03-.24.95.16,1.91.64,2.86,1.43.95.79.83,1.98-.36,3.54-1.19,1.57-2.54,3.68-4.05,6.34-1.51,2.66-3.29,6.3-5.33,10.93-2.04,4.63-2.91,7.59-2.59,8.91.32,1.31.98,2.41,2,3.31,1.01.89,2.69,1.31,5.03,1.25,2.34-.06,6.73-.26,13.17-.6,6.43-.34,6.91-.26,1.43.24-5.48.5-9.58.95-12.3,1.37-2.72.42-3.66,1.78-2.83,4.08.83,2.3,1.36,4.06,1.58,5.27.22,1.21.23,2.5.03,3.87-.2,1.37-.81,2.81-1.85,4.32-1.03,1.51-2.13,2.81-3.31,3.9-1.17,1.09-2.36,1.81-3.57,2.14-1.21.34-2.57.32-4.08-.06-1.51-.38-2.8-1.13-3.87-2.26-1.07-1.13-1.85-2.8-2.32-5-.48-2.21-.67-4.4-.57-6.58.1-2.18,1.05-5.66,2.86-10.42,1.81-4.77,3.37-8.58,4.68-11.44s3.12-6.99,5.42-12.39c2.3-5.4,3.65-8.5,4.05-9.29.4-.79,1.03-1.67,1.91-2.62ZM151.9,49.95c-1.11-1.43-2.13-1.47-3.07-.12-.93,1.35-1.49,2.7-1.67,4.05-.18,1.35-.23,2.59-.15,3.72.08,1.13.42,2.27,1.01,3.42.6,1.15,1.43,1.71,2.5,1.67,1.07-.04,1.99-.49,2.74-1.34.75-.85,1.28-1.89,1.58-3.1.3-1.21.16-2.55-.42-4.02-.58-1.47-1.42-2.9-2.53-4.29Z"/>
    <path class="cls-2" d="M184.48,43.04c2.66-.2,4.28.25,4.85,1.34.58,1.09.84,2.48.8,4.17-.04,1.69-.83,3.12-2.38,4.29-1.55,1.17-3.6,2.33-6.14,3.48-.71.28-1.36.43-1.94.45-.58.02-1.05,0-1.43-.06-.38-.06-.67-.12-.89-.18-.22-.06-.35-.03-.39.09-.71,1.15-1.08,2.3-1.1,3.46-.02,1.15.36,2.21,1.13,3.19.77.97,1.64,1.54,2.59,1.7.95.16,1.95.13,2.98-.09,1.03-.22,2.94-.9,5.72-2.06,2.78-1.15,4.72-2.23,5.81-3.25,1.09-1.01,2.13-2,3.13-2.95.99-.95,1.13-.95.42,0s-1.6,2.11-2.65,3.46c-1.05,1.35-2.36,2.69-3.93,4.02-1.57,1.33-2.85,2.35-3.84,3.07-.99.71-2.31,1.36-3.96,1.94-1.65.58-3.27.75-4.85.54-1.59-.22-2.78-.59-3.57-1.1-.79-.52-1.53-1.13-2.2-1.85-.68-.71-1.23-1.56-1.67-2.53-.44-.97-.67-2.3-.69-3.99-.02-1.69.38-3.52,1.19-5.51.81-1.99,1.74-3.63,2.77-4.94,1.03-1.31,2.43-2.63,4.2-3.96,1.77-1.33,3.78-2.23,6.05-2.71ZM184.54,48.4c-.28-.28-.96-.14-2.05.42-1.09.56-1.89,1.18-2.38,1.88-.5.69-.59,1.2-.27,1.52.32.32.99.19,2.03-.39,1.03-.58,1.86-1.15,2.47-1.73.62-.58.69-1.14.21-1.7Z"/>
    <path class="cls-2" d="M204.19,51.44c1.43-5.52,2.81-8.22,4.14-8.1,1.33.12,2.33.71,3.01,1.79.67,1.07.61,2.39-.21,3.96-.81,1.57-.89,2.3-.24,2.21.65-.1,1.52-.5,2.59-1.19,1.07-.7,2.09-1.25,3.07-1.67.97-.42,1.76-.69,2.35-.8s1.74.08,3.43.6c1.69.52,3.29,1.24,4.79,2.17,1.51.93,3.5,1.01,5.99.24,2.48-.77,2.21-.52-.8.78-3.02,1.29-6.11,1.9-9.26,1.82-3.16-.08-5.6.3-7.33,1.13-1.73.83-3.19,1.76-4.38,2.77-1.19,1.01-2.29,2.68-3.31,5-1.01,2.32-1.79,4.28-2.32,5.87-.54,1.59-1.01,2.89-1.43,3.9-.42,1.01-1.27,1.55-2.56,1.61-1.29.06-2.14-.41-2.56-1.4-.42-.99-.52-1.64-.3-1.94.22-.3.81-2.11,1.79-5.45.97-3.34,2.15-7.76,3.54-13.28Z"/>
    <path class="cls-2" d="M235.75,47.86c-.08-1.99.51-3.07,1.76-3.25,1.25-.18,2.3,0,3.16.57.85.56,1.25,3.03,1.19,7.42-.06,4.39,1.33,5.19,4.17,2.41,2.84-2.78,5.16-4.55,6.97-5.3,1.81-.75,3.14-.37,3.99,1.16.85,1.53,1.02,4.31.51,8.34-.52,4.03-.35,5.03.51,3.01.85-2.03,1.53-3.77,2.03-5.24.5-1.47,1.28-2.92,2.35-4.35s2.37-2.63,3.9-3.6c1.53-.97,3.12-.64,4.77,1.01s4.96,2.08,9.95,1.28c4.98-.79,5.64-.8,1.96-.03-3.67.77-6.96,1.22-9.86,1.34-2.9.12-4.85,1.01-5.87,2.68-1.01,1.67-1.78,3.32-2.29,4.94-.52,1.63-1.66,3.9-3.43,6.82-1.77,2.92-3.11,4.77-4.02,5.54-.91.77-1.64,1-2.17.68-.54-.32-1.23-1.24-2.08-2.77-.85-1.53-1.18-4.1-.98-7.71.2-3.61-.32-5.11-1.55-4.5-1.23.62-3.35,2.63-6.34,6.05-3,3.42-4.96,5.1-5.9,5.06-.93-.04-1.64-.51-2.12-1.4-.48-.89-.46-2.27.06-4.14.52-1.87.72-3.72.63-5.57-.1-1.85-.23-3.23-.39-4.14-.16-.91-.33-1.71-.51-2.38-.18-.67-.31-1.99-.39-3.93Z"/>
    <path class="cls-2" d="M285.18,46.14c.75-.71,1.68-1.17,2.77-1.37,1.09-.2,2-.14,2.71.18.71.32,1.32.88,1.82,1.7.5.81,1.74,1.2,3.72,1.16,1.99-.04,4.46-.03,7.42.03,2.96.06,2.33.15-1.88.27-4.21.12-6.6.29-7.18.51-.58.22-.81.92-.71,2.12.1,1.19.18,2.45.24,3.78.06,1.33.07,2.81.03,4.44-.04,1.63-.16,2.84-.36,3.63-.2.79-.5,1.63-.89,2.5-.4.87-.98,1.8-1.76,2.77-.78.97-1.73,1.88-2.86,2.71-1.13.83-2.17,1.46-3.13,1.88-.95.42-1.99.44-3.1.06-1.11-.38-2.02-.97-2.71-1.79-.7-.81-1.25-1.66-1.67-2.53-.42-.87-.6-2.4-.54-4.59.06-2.18.3-3.94.71-5.27.42-1.33,1.06-2.72,1.94-4.17.87-1.45,1.13-2.12.77-2.03-.36.1-.45.05-.27-.15.18-.2.86-1.05,2.05-2.56,1.19-1.51,2.14-2.6,2.86-3.28ZM288.16,55.49c-.87-1.07-1.97-.77-3.28.89s-2.09,3.44-2.35,5.3c-.26,1.87-.16,3.18.3,3.93.46.75.93,1.19,1.43,1.31.5.12,1.2-.21,2.12-.98.91-.78,1.66-2.45,2.23-5.03.58-2.58.43-4.39-.45-5.42Z"/>
    <path class="cls-2" d="M311.26,46.14c.75-.71,1.68-1.17,2.77-1.37,1.09-.2,2-.14,2.71.18.71.32,1.32.88,1.82,1.7.5.81,1.74,1.2,3.72,1.16,1.99-.04,4.46-.03,7.42.03,2.96.06,2.33.15-1.88.27-4.21.12-6.6.29-7.18.51-.58.22-.81.92-.71,2.12.1,1.19.18,2.45.24,3.78.06,1.33.07,2.81.03,4.44-.04,1.63-.16,2.84-.36,3.63-.2.79-.5,1.63-.89,2.5-.4.87-.98,1.8-1.76,2.77-.78.97-1.73,1.88-2.86,2.71-1.13.83-2.17,1.46-3.13,1.88-.95.42-1.99.44-3.1.06-1.11-.38-2.02-.97-2.71-1.79-.7-.81-1.25-1.66-1.67-2.53-.42-.87-.6-2.4-.54-4.59.06-2.18.3-3.94.71-5.27.42-1.33,1.06-2.72,1.94-4.17.87-1.45,1.13-2.12.77-2.03-.36.1-.45.05-.27-.15.18-.2.86-1.05,2.05-2.56,1.19-1.51,2.14-2.6,2.86-3.28ZM314.24,55.49c-.87-1.07-1.97-.77-3.28.89s-2.09,3.44-2.35,5.3c-.26,1.87-.16,3.18.3,3.93.46.75.93,1.19,1.43,1.31.5.12,1.2-.21,2.12-.98.91-.78,1.66-2.45,2.23-5.03.58-2.58.43-4.39-.45-5.42Z"/>
    <path class="cls-2" d="M347.77,9.62c.48-.67,1.13-.98,1.97-.92.83.06,1.61.42,2.32,1.07.71.66,1.48,1.6,2.29,2.83.81,1.23,1.53,3.7,2.14,7.42.62,3.71.71,7.27.3,10.66-.42,3.39-.75,5.55-1.01,6.46-.26.91.13,1.89,1.16,2.92,1.03,1.03,1.52,1.99,1.46,2.86-.06.87-.47,1.59-1.22,2.14-.75.56-1.49.74-2.2.54-.71-.2-1.54.89-2.47,3.28-.93,2.38-2.08,4.72-3.42,7-1.35,2.28-2.58,4.2-3.69,5.75-1.11,1.55-2.63,3.17-4.56,4.85-1.93,1.69-3.42,2.65-4.5,2.89s-2.01.23-2.8-.03c-.79-.26-1.53-.92-2.2-2-.68-1.07-1.04-3.08-1.1-6.02-.06-2.94.8-5.84,2.59-8.7s5-5.37,9.65-7.54c4.65-2.17,6.22-2.94,4.74-2.32-1.49.62-7.08,1.41-16.77,2.38-9.69.97-9.24.75,1.34-.68,10.58-1.43,16.4-2.68,17.46-3.75,1.05-1.07,1.81-2.83,2.26-5.27.46-2.44.7-4.72.74-6.82.04-2.1-.1-4.22-.42-6.34-.32-2.12-1.26-4.27-2.83-6.43-1.57-2.16-2.27-3.58-2.12-4.26.16-.67.46-1.33.89-1.97ZM343.78,50.49c-.83.36-2.07,1.33-3.69,2.92-1.63,1.59-2.74,3.07-3.34,4.44-.6,1.37-.75,2.46-.48,3.28.28.81,1.48.13,3.6-2.05,2.12-2.18,3.52-3.98,4.17-5.39.66-1.41.99-2.38,1.01-2.92.02-.54-.41-.62-1.28-.27Z"/>
  </g>
  <g>
    <path class="cls-1" d="M178.79,93.63c1.96.17,3.25.3,3.87.4.61.09,1.69.21,3.24.34,1.55.13,2.58.4,3.09.81.51.41.53.78.06,1.13-.47.35-1.1.52-1.88.52s-1.52-.04-2.2-.11-1.2-.12-1.57-.14-1.39-.08-3.07-.2c-1.68-.11-2.83-.16-3.44-.14-.61.02-1.09.22-1.43.59s-.77.86-1.3,1.44c-.53.58-1.24,1.49-2.14,2.72-.9,1.23-1.81,2.61-2.73,4.13-.93,1.53-1.8,2.99-2.62,4.38-.82,1.39-1.23,2.47-1.23,3.24s.18,1.3.55,1.57c.37.27.84.29,1.43.04.58-.25,1.04-.41,1.37-.5.33-.09.8-.3,1.42-.64.61-.34,1.27-.77,1.97-1.3.7-.53.67-.38-.1.44-.76.82-1.35,1.52-1.74,2.08s-1.14,1.29-2.24,2.17c-1.1.88-2.01,1.34-2.75,1.37s-1.39-.14-1.97-.52c-.58-.39-.93-1-1.05-1.83-.12-.83-.18-1.58-.18-2.24s.15-1.39.45-2.18c.3-.79.7-1.62,1.19-2.48.49-.86,1.42-2.33,2.78-4.4s2.62-4.04,3.79-5.88c1.17-1.84,1.26-2.74.27-2.69-.99.05-2.43.09-4.3.11-1.88.03-3.29.08-4.23.14-.94.07-1.72.24-2.34.52-.61.28-1.25.26-1.9-.06s-1.03-.58-1.13-.78c-.1-.2-.11-.33-.03-.41s.41-.33.98-.78c.57-.44,1.16-.82,1.77-1.12.61-.3,2.71-.42,6.3-.37,3.59.06,5.75.1,6.5.14.75.04,1.53.08,2.36.13.83.05,2.23.16,4.19.33Z"/>
    <path class="cls-2" d="M190.71,101.9c1.26-.09,2.03.12,2.31.64.27.52.4,1.18.38,1.98-.02.8-.4,1.48-1.13,2.04-.74.56-1.71,1.11-2.92,1.66-.34.13-.65.2-.92.21-.27,0-.5,0-.68-.03-.18-.03-.32-.06-.42-.08-.1-.03-.17-.01-.18.04-.34.55-.51,1.09-.52,1.64s.17,1.05.54,1.51c.37.46.78.73,1.23.81s.92.06,1.42-.04c.49-.1,1.4-.43,2.72-.98,1.32-.55,2.24-1.06,2.76-1.54.52-.48,1.01-.95,1.49-1.4.47-.45.54-.45.2,0s-.76,1-1.26,1.64-1.12,1.28-1.87,1.91c-.75.63-1.35,1.12-1.83,1.46-.47.34-1.1.65-1.88.92-.78.27-1.55.36-2.31.26-.76-.1-1.32-.28-1.7-.52-.38-.25-.73-.54-1.05-.88-.32-.34-.59-.74-.79-1.2-.21-.46-.32-1.1-.33-1.9,0-.8.18-1.67.57-2.62.39-.94.83-1.73,1.32-2.35.49-.62,1.16-1.25,2-1.88.84-.63,1.8-1.06,2.88-1.29ZM190.74,104.45c-.13-.13-.46-.07-.98.2s-.9.56-1.13.89c-.24.33-.28.57-.13.72.15.15.47.09.96-.18.49-.27.88-.55,1.17-.82.29-.27.33-.54.1-.81Z"/>
    <path class="cls-2" d="M206.79,102.63c1.83-.72,3.08-.9,3.74-.54s.99.9.98,1.61c0,.72-.67,1.1-1.97,1.16s-2.43.4-3.37,1.03c-.94.63-1.56,1.56-1.84,2.78-.28,1.22-.05,2.14.71,2.76s1.52.91,2.29.86c.77-.05,1.46-.17,2.05-.35.59-.19,1.29-.5,2.08-.93s1.68-1.06,2.68-1.88c.99-.82.97-.71-.07.33s-1.98,1.91-2.83,2.62c-.85.71-1.6,1.23-2.27,1.56-.66.33-1.31.56-1.95.69s-1.41.17-2.31.11c-.9-.06-1.75-.5-2.55-1.35-.8-.84-1.2-1.84-1.19-2.99,0-1.15.19-2.12.54-2.92.35-.79.88-1.57,1.6-2.34.72-.77,1.94-1.51,3.68-2.22Z"/>
    <path class="cls-2" d="M226.99,85.84c.98-.23,1.78-.1,2.41.37s.5,1.3-.37,2.49-2.09,3.7-3.65,7.52c-1.57,3.82-2.59,6.54-3.06,8.14s-.51,2.19-.11,1.76.79-.83,1.17-1.18c.39-.35.82-.71,1.29-1.08.47-.37.9-.64,1.29-.81.39-.17.82-.3,1.29-.38.47-.08.9-.02,1.29.2.39.22.69.5.91.83.22.34.35.95.4,1.84.05.89,0,1.82-.16,2.79-.15.97-.16,1.7-.03,2.2s.37.92.72,1.3c.35.38.95.47,1.8.27.85-.2,1.51-.55,1.98-1.05.47-.5.58-.47.33.1-.25.57-.63,1.07-1.13,1.52-.5.44-1.11.83-1.83,1.16-.72.33-1.3.5-1.76.51-.45,0-.92-.18-1.39-.57-.47-.39-.79-.94-.96-1.67-.17-.73-.21-1.86-.11-3.38s-.01-2.44-.33-2.73c-.31-.29-1.11.04-2.41,1-1.29.96-2.27,2.05-2.93,3.26s-1.15,2.23-1.47,3.07c-.32.84-.72,1.19-1.19,1.06s-.84-.35-1.1-.65-.4-.73-.4-1.29.57-2.71,1.7-6.47,2.43-7.43,3.88-11.02,2.3-5.77,2.55-6.54.71-1.63,1.39-2.58Z"/>
    <path class="cls-2" d="M243.13,102.49c.4-.19.9-.15,1.52.11.61.26.75.75.4,1.47-.35.72-.92,1.9-1.71,3.55-.79,1.65-.87,2.1-.24,1.36.63-.75,1.4-1.51,2.29-2.28.9-.77,1.54-1.27,1.94-1.5s.83-.4,1.29-.51c.46-.11.99-.08,1.57.08s1.09.65,1.5,1.43c.42.78.64,2.08.67,3.88.03,1.8.47,2.69,1.33,2.65.86-.04,1.7-.35,2.51-.95.81-.59,1.42-1.2,1.81-1.81.4-.61.57-.78.51-.5s-.27.7-.65,1.25-1.18,1.4-2.41,2.55-2.29,1.74-3.19,1.76c-.9.02-1.55-.34-1.95-1.08-.41-.74-.67-1.91-.79-3.53-.12-1.61-.34-2.44-.64-2.46-.3-.03-.96.27-1.98.91-1.02.63-1.95,1.46-2.8,2.48s-1.54,1.88-2.08,2.59c-.54.71-1.02,1.14-1.46,1.29s-.79.04-1.06-.34c-.27-.38-.37-.84-.28-1.39.08-.55.25-1.39.5-2.52s.59-2.33,1.05-3.58c.45-1.26.35-1.67-.31-1.23s-1.47,1.09-2.42,1.97c-.95.88-.61.46,1.02-1.25,1.63-1.71,2.54-2.71,2.72-2.99.18-.28.35-.54.52-.78.17-.24.45-.45.85-.64Z"/>
    <path class="cls-2" d="M264.37,103.37c.36-.34.8-.56,1.32-.65.52-.09.95-.07,1.29.08s.63.42.86.81c.24.39.83.57,1.77.55s2.12-.01,3.53.01c1.41.03,1.11.07-.89.13s-3.14.14-3.41.24c-.27.1-.39.44-.34,1.01.05.57.08,1.17.11,1.8.03.63.03,1.33.01,2.11s-.08,1.35-.17,1.73-.24.77-.42,1.19-.47.85-.83,1.32c-.37.46-.82.89-1.36,1.29-.54.4-1.03.69-1.49.89-.45.2-.94.21-1.47.03-.53-.18-.96-.46-1.29-.85-.33-.39-.6-.79-.79-1.2-.2-.42-.28-1.14-.26-2.18.03-1.04.14-1.87.34-2.51.2-.63.51-1.29.92-1.98.42-.69.54-1.01.37-.96-.17.05-.21.02-.13-.07.08-.09.41-.5.98-1.22s1.02-1.24,1.36-1.56ZM265.79,107.82c-.42-.51-.93-.37-1.56.42s-1,1.63-1.12,2.52c-.12.89-.08,1.51.14,1.87.22.36.44.57.68.62.24.06.57-.1,1.01-.47.43-.37.79-1.17,1.06-2.39.27-1.23.2-2.09-.21-2.58Z"/>
    <path class="cls-2" d="M282.61,93.77c.75-1.19,1.38-1.67,1.88-1.44.5.23.77.52.81.88s-.78,2.2-2.45,5.52c-1.67,3.32-2.88,6.42-3.62,9.27-.75,2.86-1,4.47-.78,4.83s.63.46,1.22.31,2.08-.97,4.47-2.45c2.4-1.48,3.87-2.46,4.42-2.92.55-.46.2-.11-1.05,1.05-1.25,1.16-2.19,2.03-2.82,2.61-.63.58-1.26,1.2-1.88,1.87-.62.67-1.38,1.25-2.28,1.74-.9.49-1.68.76-2.35.81-.67.05-1.16-.11-1.47-.47-.31-.36-.61-.79-.89-1.3s-.31-1.45-.07-2.82c.24-1.37.89-3.6,1.97-6.7s1.97-5.38,2.69-6.84c.72-1.46,1.45-2.78,2.21-3.95Z"/>
    <path class="cls-2" d="M293.23,103.37c.36-.34.8-.56,1.32-.65.52-.09.95-.07,1.29.08s.63.42.86.81c.24.39.83.57,1.77.55s2.12-.01,3.53.01c1.41.03,1.11.07-.89.13s-3.14.14-3.41.24c-.27.1-.39.44-.34,1.01.05.57.08,1.17.11,1.8.03.63.03,1.33.01,2.11s-.08,1.35-.17,1.73-.24.77-.42,1.19-.47.85-.83,1.32c-.37.46-.82.89-1.36,1.29-.54.4-1.03.69-1.49.89-.45.2-.94.21-1.47.03-.53-.18-.96-.46-1.29-.85-.33-.39-.6-.79-.79-1.2-.2-.42-.28-1.14-.26-2.18.03-1.04.14-1.87.34-2.51.2-.63.51-1.29.92-1.98.42-.69.54-1.01.37-.96-.17.05-.21.02-.13-.07.08-.09.41-.5.98-1.22s1.02-1.24,1.36-1.56ZM294.64,107.82c-.42-.51-.93-.37-1.56.42s-1,1.63-1.12,2.52c-.12.89-.08,1.51.14,1.87.22.36.44.57.68.62.24.06.57-.1,1.01-.47.43-.37.79-1.17,1.06-2.39.27-1.23.2-2.09-.21-2.58Z"/>
    <path class="cls-2" d="M316.28,102.46c1.4.09,1.95.44,1.66,1.05-.29.6-.59,1.66-.89,3.17s-.58,2.79-.85,3.84c-.26,1.05-.64,2.15-1.13,3.31-.49,1.16-.87,2.06-1.15,2.69-.27.63-.61,1.34-1.02,2.14-.41.79-1.08,1.92-2.01,3.37-.94,1.45-2.01,2.71-3.23,3.75-1.22,1.05-2.21,1.68-2.97,1.88-.76.21-1.62.14-2.58-.2-.95-.34-1.47-1.08-1.54-2.21s1.26-2.98,3.99-5.55,2.9-2.66.5-.28c-2.41,2.38-3.63,4.01-3.67,4.9s.17,1.4.61,1.53c.44.13.89.11,1.33-.06.44-.17,1.05-.57,1.81-1.2.77-.63,1.41-1.22,1.93-1.77.52-.55,1.15-1.39,1.88-2.52s1.4-2.34,2-3.62c.59-1.28,1-2.18,1.22-2.68.22-.5.61-1.54,1.18-3.13s.48-1.99-.25-1.22-1.7,1.62-2.9,2.53c-1.2.92-2.18,1.5-2.96,1.74s-1.36.31-1.77.2c-.41-.11-.77-.34-1.08-.69-.31-.35-.37-1.04-.17-2.07.2-1.03.69-2.26,1.49-3.68.79-1.43,1.72-2.52,2.78-3.29,1.06-.77,2-1.31,2.83-1.63s1.48-.47,1.95-.45,1,.16,1.6.41c.59.26,1.07.17,1.43-.27ZM313.25,105.47c-.32-.32-.8-.29-1.44.1-.64.39-1.36.97-2.15,1.76-.79.78-1.45,1.62-1.98,2.51s-.27,1.02.76.4,1.97-1.3,2.8-2.04,1.44-1.34,1.84-1.81.45-.77.17-.91Z"/>
    <path class="cls-2" d="M328.03,101.79c.42-.09.89-.07,1.43.08.54.15.63.7.28,1.64-.35.94-.73,2.17-1.15,3.68s-.81,2.74-1.17,3.68c-.37.94-.78,1.76-1.23,2.45-.45.69-.89,1.06-1.3,1.12s-.7.04-.86-.04c-.16-.08-.17-.52-.04-1.32s.41-2.01.84-3.64c.42-1.63.83-3.05,1.2-4.26s.38-1.83.01-1.85c-.37-.03-.23-.27.43-.72.65-.45,1.17-.73,1.57-.82ZM332.56,93.2c.42.34.67,1.08.75,2.22.08,1.14.48,2.26,1.17,3.34.7,1.09,1.52,1.95,2.46,2.59s1.81,1.09,2.59,1.36c.78.26.76.33-.07.18-.83-.14-1.66-.47-2.48-.99-.82-.52-1.7-1.29-2.65-2.32-.94-1.03-1.63-1.79-2.07-2.27-.43-.48-.74-.75-.92-.81-.18-.06-.33-.1-.45-.13-.12-.03-.41-.22-.85-.57-.44-.35-.6-.78-.48-1.29.12-.51.29-.89.5-1.13s.57-.43,1.09-.55c.52-.12.99,0,1.4.35Z"/>
    <path class="cls-2" d="M342.53,101.9c1.26-.09,2.03.12,2.31.64.27.52.4,1.18.38,1.98-.02.8-.4,1.48-1.13,2.04-.74.56-1.71,1.11-2.92,1.66-.34.13-.65.2-.92.21-.27,0-.5,0-.68-.03-.18-.03-.32-.06-.42-.08-.1-.03-.17-.01-.18.04-.34.55-.51,1.09-.52,1.64,0,.55.17,1.05.54,1.51.37.46.78.73,1.23.81s.92.06,1.42-.04c.49-.1,1.4-.43,2.72-.98s2.24-1.06,2.76-1.54c.52-.48,1.02-.95,1.49-1.4s.54-.45.2,0-.76,1-1.26,1.64c-.5.64-1.12,1.28-1.87,1.91-.75.63-1.36,1.12-1.83,1.46s-1.1.65-1.88.92c-.78.27-1.55.36-2.31.26-.75-.1-1.32-.28-1.7-.52s-.73-.54-1.05-.88-.58-.74-.79-1.2c-.21-.46-.32-1.1-.33-1.9,0-.8.18-1.67.57-2.62.39-.94.83-1.73,1.32-2.35s1.16-1.25,2-1.88c.84-.63,1.8-1.06,2.87-1.29ZM342.56,104.45c-.13-.13-.46-.07-.98.2-.52.26-.9.56-1.13.89-.24.33-.28.57-.13.72s.47.09.96-.18c.49-.27.88-.55,1.17-.82.29-.27.33-.54.1-.81Z"/>
    <path class="cls-2" d="M358.79,102.27c.75-.38,1.51-.62,2.27-.74s1.21.03,1.37.42c.16.4.09.78-.23,1.16-.31.38-.74.59-1.27.64-.54.05-1.12.43-1.74,1.16-.62.73-.98,1.59-1.08,2.58-.09.99-.07,1.68.07,2.05.14.38.3,1.11.47,2.21s.06,2.03-.34,2.82c-.4.78-.82,1.36-1.27,1.71s-1.01.62-1.69.79c-.67.17-1.24.25-1.71.25s-.98-.11-1.52-.34c-.54-.23-.87-.69-.99-1.4-.12-.71.87-2.02,2.97-3.94,2.11-1.92,2.27-1.97.5-.17-1.77,1.8-2.47,2.92-2.08,3.36.39.43.85.55,1.39.34.54-.21.96-.49,1.27-.84.31-.35.54-.77.69-1.27.15-.5.22-.96.2-1.39-.02-.42-.17-1.37-.44-2.83-.27-1.46-.27-2.56,0-3.3.27-.74.68-1.37,1.22-1.91s1.18-1,1.94-1.37Z"/>
  </g>
</svg>